<?xml version="1.0" encoding="UTF-8" standalone="no"?>
<!DOCTYPE svg PUBLIC "-//W3C//DTD SVG 1.1//EN" "http://www.w3.org/Graphics/SVG/1.1/DTD/svg11.dtd">
<!-- Created with Vectornator (http://vectornator.io/) -->
<svg height="100%" stroke-miterlimit="10" style="fill-rule:nonzero;clip-rule:evenodd;stroke-linecap:round;stroke-linejoin:round;" version="1.1" viewBox="0 0 1024 1024" width="100%" xml:space="preserve" xmlns="http://www.w3.org/2000/svg" xmlns:vectornator="http://vectornator.io" xmlns:xlink="http://www.w3.org/1999/xlink">
<defs/>
<g id="Layer-1" vectornator:layerName="Layer 1">
<g opacity="1" vectornator:layerName="Group 1">
<path d="M404.181 41.1007C374.353 49.2928 343.897 55.8201 315.117 67.1565C293.555 75.6499 273.341 87.5241 253.982 100.264C232.913 114.129 212.38 129.175 194.243 146.702C167.387 172.653 141.036 199.659 119.527 230.189C99.2288 259 83.773 291.131 69.7192 323.451C58.0694 350.242 49.9944 378.536 42.7159 406.829C38.6493 422.637 36.259 438.989 35.7989 455.305C34.518 500.718 32.3346 546.452 37.5047 591.589C41.0227 622.301 50.6901 652.227 61.6656 681.126C72.748 710.307 86.1501 738.933 103.355 764.978C126.327 799.754 153.412 831.797 181.522 862.569C195.282 877.631 212.045 889.725 228.423 901.889C247.318 915.924 266.036 930.713 287.184 941.047C321.923 958.022 358.59 970.876 395.18 983.373C407.205 987.48 419.894 990.15 432.589 990.71C480.87 992.842 529.481 996.223 577.57 991.427C611.078 988.085 643.909 978.243 675.464 966.486C704.278 955.75 731.292 940.394 757.538 924.372C781.716 909.611 805.209 893.34 826.285 874.412C849.814 853.282 872.365 830.529 890.714 804.772C914.476 771.415 934.629 735.351 951.826 698.181C964.786 670.169 974.532 640.45 980.73 610.215C986.265 583.208 986.78 555.3 986.763 527.732C986.738 488.322 987.194 448.517 980.603 409.662C975.998 382.513 964.728 356.769 953.499 331.626C938.067 297.068 921.795 262.55 900.834 231.037C882.165 202.971 859.947 177.023 835.34 153.985C809.049 129.372 779.463 108.261 749.065 88.9486C728.2 75.6924 705.517 65.1319 682.267 56.7342C652.398 45.9455 621.915 35.2246 590.361 31.6258C543.761 26.3109 496.502 27.8208 449.66 30.2046C434.091 30.9969 419.213 36.9721 404.181 41.1007Z" fill="#133c4d" fill-rule="nonzero" opacity="1" stroke="none"/>
<path d="M421.709 83.2637C423.916 85.1806 423.916 85.1806 426.122 87.0975C393.414 97.9864 369.807 103.06 341.444 120.592C316.775 135.841 291.903 151.019 269.158 169.012C248.396 185.437 229.282 203.999 211.368 223.491C198.051 237.981 188.538 255.613 175.789 270.604C173.988 272.722 169.307 279.493 168.118 281.699C164.96 287.556 158.836 291.474 155.756 297.373C152.998 302.656 146.865 314.552 145.803 315.974C141.015 322.389 137.258 329.605 134.212 337.008C131.366 343.927 123.708 358.627 123.156 360.328C116.686 380.264 113.994 401.274 107.909 421.33C106.791 425.012 102.293 427.257 101.694 431.058C93.8894 480.542 98.1721 531.193 97.2852 581.28C97.1946 586.392 93.4042 591.198 94.0394 596.271C95.2251 605.741 99.7357 614.49 102.584 623.599C108.368 623.193 114.375 624.025 119.936 622.382C132.507 618.668 143.794 611.24 156.414 607.696C167.014 604.719 178.206 604.538 189.102 602.958C180.988 599.692 171.818 598.326 164.76 593.159C156.106 586.825 146.844 579.391 143.149 569.323C138.736 557.3 140.676 543.668 141.917 530.921C142.958 520.236 145.825 509.646 149.925 499.724C165.734 461.463 190.808 420.073 231.512 403.868C236.72 401.795 242.788 405.612 248.311 404.65C251.832 404.037 254.048 399.121 257.617 399.324C267.012 399.859 276.292 402.837 284.86 406.73C309.549 417.948 315.297 442.344 313.247 466.972C312.665 473.963 312.321 481.722 308.209 487.406C291.688 510.244 268.697 527.948 252.466 550.993C243.688 563.457 250.56 582.07 254.98 596.661C277.394 596.865 299.899 595.258 322.224 597.274C340.793 598.95 358.648 605.625 377.178 607.696C385.665 608.644 394.232 606.748 402.76 606.275C400.019 605.483 396.543 605.93 394.539 603.9C383.454 592.678 370.837 581.823 364.387 567.428C360.236 558.165 361.364 546.615 364.55 536.978C368.03 526.451 375.184 516.979 383.492 509.637C401.956 493.321 424.576 482.308 443.825 466.925C454.056 458.75 455.484 450.717 453.924 438.57C448.083 393.099 381.493 398.246 356.055 367.327C349.92 359.87 345.287 350.551 344.016 340.979C342.632 330.56 344.418 319.478 348.409 309.754C353.165 298.17 360.732 287.585 369.574 278.717C380.388 267.872 393.722 259.81 406.55 251.442C413.529 246.889 420.874 242.599 428.815 240.072C435.014 238.1 441.928 239.755 448.239 238.177C452.83 237.03 456.357 232.767 461.03 232.019C485.172 228.151 510.048 229.413 533.986 224.439C548.903 221.339 562.889 214.57 576.633 207.995C591.795 200.742 606.477 192.389 620.464 183.068C628.207 177.907 635.279 171.644 641.525 164.747C646.429 159.333 652.624 153.706 653.611 146.469C654.908 136.962 652.111 126.869 647.867 118.265C643.695 109.808 635.428 104.09 629.208 97.0022C635.604 95.8179 635.604 95.8179 641.999 94.6335C625.102 90.8436 618.243 84.8287 589.414 79.4738C560.585 74.1188 515.418 69.993 478.558 73.3151C459.398 75.042 440.659 79.9475 421.709 83.2637Z" fill="#41d1bb" fill-rule="nonzero" opacity="1" stroke="none"/>
<path d="M627.482 99.623C634.074 107.425 639.434 112.045 643.752 121.301C647.699 129.763 648.557 139.707 647.82 149.015C647.457 153.598 643.727 157.388 640.626 160.782C633.086 169.034 625.469 177.538 616.136 183.691C604.409 191.422 590.426 195.108 578.165 201.961C575.552 203.422 549.789 214.555 539.087 218.662C535.178 220.162 509.89 225.387 500.803 226.753C492.818 227.954 463.199 231.268 456.271 232.438C451.465 233.25 429.156 238.235 423.104 241.076C406.659 248.799 391.484 259.114 376.732 269.719C332.281 301.677 323.651 360.561 375.942 389.609C379.152 391.392 410.863 401.341 422.73 406.737C427.691 408.994 442.718 420.843 445.375 426.199C465.947 467.664 408.076 487.061 384.744 505.631C378.435 510.653 373.067 516.877 368.333 523.404C366.377 526.101 360.666 533.437 360.102 535.159C358.022 541.506 357.645 548.378 357.733 555.056C358.063 580.122 380.262 585.978 391.944 606.004C388.677 607.711 382.794 606.668 379.527 608.376C388.29 608.706 402.652 615.945 411.266 617.59C417.16 618.716 464.991 626.657 483.275 627.539C532.078 629.893 580.996 627.557 629.855 627.268C634.375 627.241 639.038 627.78 643.399 626.591C645.952 625.896 658.469 623.709 662.826 623.26C664.871 623.049 667.786 621.999 668.034 619.959C669.389 608.79 668.742 597.375 667.322 586.214C666.51 579.833 664.321 573.579 661.402 567.847C649.054 543.603 616.991 539.162 596.973 525.684C582.742 516.103 570.21 504.126 557.964 492.112C543.02 477.449 528.034 444.976 525.911 444.675C524.49 432.831 521.754 421.072 521.648 409.144C521.435 385.394 520.244 361.247 524.957 337.968C528.12 322.349 537.427 308.595 544.861 294.498C548.192 288.183 552.287 282.183 557.141 276.946C570.352 262.693 583.22 247.753 598.868 236.228C618.796 221.55 643.952 214.939 668.034 209.225C663.297 208.277 663.297 208.277 658.559 207.33C665.981 199.118 675.965 192.64 680.825 182.695C684.6 174.971 684.552 165.491 683.152 157.008C680.843 143.028 663.14 122.601 654.345 114.164C649.081 109.114 640.119 105.526 639.293 98.2777C631.634 98.0867 635.14 99.8141 627.482 99.623Z" fill="#219888" fill-rule="nonzero" opacity="1" stroke="none"/>
<path d="M657.092 211.878C673.877 206.599 699.859 204.165 719.093 203.871C723.774 203.799 728.567 203.708 733.104 204.865C735.796 205.552 748.872 206.898 752.855 208.332C808.753 228.452 859.971 299.514 868.682 318.011C877.393 336.509 880.862 351.678 881.239 359.929C882.169 380.279 885.017 401.024 881.239 421.042C878.162 437.341 868.551 451.725 861.112 466.55C846.944 494.786 819.904 518.445 793.123 534.266C775.512 544.67 747.515 550.741 742.474 574.987C740.22 585.827 741.499 597.109 741.011 608.17C757.945 609.166 778.746 608.702 795.612 605.556C798.998 604.924 818.994 600.422 826.164 598.925C834.586 597.166 867.042 588.861 875.08 586.851C877.378 586.277 888.151 583.801 891.62 582.604C895.089 581.408 924.488 569.02 932.877 567.902C933.628 525.049 935.039 480.463 933.247 439.325C931.455 398.186 917.611 372.64 910.611 358.508C909.481 356.226 871.537 278.048 868.378 274.563C866.52 272.513 848.622 246.15 843.136 239.773C799.562 189.114 759.58 153.246 701.691 120.216C687.735 112.253 644.524 95.4898 641.229 94.4242C637.935 93.3587 623.502 88.4363 621.387 88.1658C619.275 87.8957 627.568 99.7473 627.568 99.7473C627.568 99.7473 678.346 132.365 680.732 155.253C681.579 163.378 681.621 170.499 678.215 177.924C673.321 188.592 656.979 200.652 657.092 211.878Z" fill="#158177" fill-rule="nonzero" opacity="1" stroke="none"/>
<path d="M610.186 474.937C608.528 476.121 608.528 476.121 606.87 477.305C613.976 482.043 620.634 487.535 628.188 491.517C632.143 493.602 636.573 496.748 640.09 497.699C645.701 498.874 675.42 505.665 670.735 486.925C668.92 479.665 667.231 471.944 662.772 465.935C657.94 459.426 651.465 453.986 645.45 448.552C634.62 438.767 627.138 432.676 617.44 421.768C614.786 418.783 608.072 408.421 613.33 405.142C618.003 402.205 634.328 408.647 644.984 415.767C652.465 420.766 658.004 425.651 665.475 430.665C670.833 434.261 684.673 445.283 685.473 440.997C688.427 425.164 684.084 335.062 694.98 321.192C700.179 316.744 705.357 317.391 708.19 319.26C712.142 321.868 714.865 326.408 716.304 330.919C718.776 338.663 716.79 391.284 717.253 410.273C755.066 403.17 787.59 365.447 809.011 334.408C813.427 328.009 815.986 320.49 820.054 313.864C821.965 310.751 824.309 306.894 823.276 303.389C819.186 289.504 803.461 275.698 794.265 268.988C771.739 252.552 742.259 243.888 737.623 242.803C729.717 240.953 721.271 236.949 713.511 239.34C709.607 240.543 693.003 248.417 689.775 249.909C683.401 252.855 677.029 255.991 670.741 259.351C642.136 274.64 615.293 294.584 598.162 322.529C582.735 347.696 578.906 378.144 579.868 407.224C580.79 435.1 589.499 454.694 610.186 474.937Z" fill="#43a523" fill-rule="nonzero" opacity="1" stroke="none"/>
<path d="M230.318 790.086C227.194 790.711 275.722 799.04 342.351 800.046C376.781 800.565 414.1 790.328 454.082 790.71C460.803 796.269 462.011 809.186 453.485 812.444C445.471 815.506 436.275 813.906 428.039 816.309C426.245 816.832 375.901 823.877 361.963 829.204C345.516 835.49 336.836 840.157 336.139 842.561C335.244 845.651 362.476 843.716 362.476 843.716C362.476 843.716 396.002 839.358 415.227 839.113C439.504 838.804 488.799 834.295 489.928 834.144C503.063 832.39 516.423 832.927 529.591 831.435C552.964 828.786 565.657 824.782 601.731 818.037C637.806 811.293 648.652 808.745 675.161 804.772C684.993 803.299 689.877 805.905 704.935 803.002C719.993 800.098 736.14 791.281 760.889 785.474C785.638 779.666 748.367 778.317 750.486 774.927C694.269 774.927 581.06 772.282 579.939 772.084C574.567 771.136 559.885 768.818 557.673 768.294C541.217 764.394 509.309 757.571 503.547 755.435C495.773 752.553 489.406 746.41 481.495 743.928C477.129 742.558 458.721 740.553 458.721 740.553C458.721 740.553 451.873 739.908 451.555 739.87C436.466 738.041 421.275 736.703 406.076 736.554C381.06 736.308 312.292 739.827 303.274 742.239C299.887 743.144 260.93 759.178 254.005 763.557C243.814 770.001 236.437 773.438 225.187 777.777C216.298 781.206 206.414 782.519 196.897 782.966C214.047 785.048 213.167 788.004 230.318 790.086Z" fill="#43a523" fill-rule="nonzero" opacity="1" stroke="none"/>
<path d="M251.77 398.48C252.244 399.19 230.731 402.511 221.955 407.319C178.779 426.365 152.823 476.822 142.435 519.319C138.607 534.979 134.505 553.836 142.202 569.797C145.959 577.587 156.737 590.227 164.468 594.431C166.862 595.734 172.122 596.786 171.723 597.719C173.434 597.959 177.105 602.562 178.68 602.958C184.404 604.401 191.338 603.624 198.318 602.316C206.765 600.733 215.278 598.37 221.79 598.221C255.734 597.442 289.693 597.589 323.645 597.274C301.063 596.958 278.469 597.147 255.9 596.326C253.297 596.231 254.985 591.159 254.005 588.746C253.289 586.984 251.554 565.629 252.11 563.164C252.813 560.044 250.061 558.626 252.442 553.574C254.824 548.521 281.976 523.116 291.74 510.393C296.527 504.156 299.905 496.916 304.695 490.682C305.869 489.153 308.823 489.194 309.433 487.365C311.037 482.55 314.242 469.466 314.276 467.536C315.049 423.75 293.825 397.059 251.77 398.48Z" fill="#219888" fill-rule="nonzero" opacity="1" stroke="none"/>
<path d="M700.325 845.566C714.702 846.418 714.73 841.431 729.107 842.282C717.33 850.908 701.153 850.712 687.233 855.111C684.69 855.915 684.965 861.07 682.321 861.428C676.168 862.263 656.964 861.742 649.058 866.19C648.038 866.764 649.735 869.284 648.632 869.675C635.25 874.422 620.445 873.396 606.577 876.444C604.851 876.823 604.471 879.671 602.764 880.125C598.895 881.154 594.638 879.64 590.763 880.651C588.756 881.174 587.951 884.255 585.895 884.526C577.597 885.62 569.123 883.872 560.785 884.602C545.19 885.967 529.869 890.663 514.215 890.663C508.682 890.663 503.496 887.66 497.982 887.203C475.265 885.324 452.418 884.983 429.763 882.466C454.467 873.338 482.404 880.622 508.711 879.376C510.157 879.307 511.033 877.646 512.194 876.781C413.893 876.781 324.387 880.514 319.459 861.221C314.532 841.928 321.519 841.994 312.749 836.039C303.978 830.085 237.894 830.127 236.438 836.324C234.981 842.52 247.577 850.832 254.543 856.644C267.581 867.519 279.78 881.833 297.74 894.449C315.7 907.064 348.614 918.987 363.827 916.482C379.581 913.888 424.267 915.053 426.447 915.154C462.845 916.853 549.507 916.237 556.252 915.154C557.509 914.952 601.656 905.335 604.33 904.649C614.558 902.027 634.859 900.103 642.667 899.726C650.475 899.35 675.953 898.691 687.478 895.257C699.004 891.823 711.177 887.478 713.259 886.734C715.817 885.82 723.905 879.125 729.168 877.255C734.43 875.385 751.242 868.818 761.919 862.138C772.597 855.457 792.578 844.464 800.229 834.618C807.88 824.772 806.315 825.645 803.969 823.251C801.622 820.857 763 832.504 741.861 835.756C728.676 837.785 713.898 842.487 700.647 844.027C699.759 844.13 700.849 844.843 700.325 845.566Z" fill="#2a701e" fill-rule="nonzero" opacity="1" stroke="none"/>
<path d="M394.706 676.388C380.968 676.862 380.968 676.862 367.229 677.336C373.717 679.742 381.114 677.034 387.983 677.878C389.983 678.124 390.366 681.652 392.337 682.073C400.237 683.761 418.29 686.938 419.814 687.284C425.531 688.584 440.319 692.202 442.405 692.803C452.619 695.744 474.262 702.703 476.663 703.392C481.693 704.835 494.417 707.969 496.087 708.603C511.615 714.499 517.132 714.114 531.471 718.311C539.475 720.654 547.496 725.211 555.778 724.236C560.846 723.64 579.899 718.298 584.676 717.13C596.469 714.249 611.132 706.002 623.366 703.206C628.037 702.138 639.301 700.481 640.578 700.075C646.803 698.101 653.534 698.007 659.73 695.942C664.984 694.19 697.192 688.296 708.323 686.811C710.627 686.503 725.583 685.026 731.349 684.453C732.998 684.289 754.573 676.641 764.225 673.546C771.963 671.065 825.975 647.56 839.087 643.491C803.491 641.711 765.601 648.719 730.115 653.175C728.786 653.342 693.425 658.023 687.005 658.86C685.782 659.019 618.903 663.799 586.098 665.966C584.961 666.041 516.378 669.787 482.509 668.366C461.126 667.469 440.094 659.586 418.734 660.932C411.451 661.391 406.1 668.247 399.917 672.125C393.557 676.114 396.976 668.332 394.706 676.388Z" fill="#81ce82" fill-rule="nonzero" opacity="1" stroke="none"/>
<path d="M820.937 297.924C819.278 300.791 809.302 320.539 808.494 322.034C805.681 327.242 805.675 333.878 802.112 338.604C791.549 352.616 778.293 368.08 765.51 380.805C760.37 385.921 737.539 398.928 724.72 405.991C721.954 407.515 722.481 407.477 717.229 410.28C718.848 430.313 716.793 441.02 717.133 455.738C717.269 461.599 718.173 461.945 720.852 466.525C729.329 461.591 740.866 454.254 747.323 446.769C751.735 441.655 752.599 433.155 758.499 429.87C761.644 428.118 781.275 416.598 786.752 419.231C792.229 421.864 786.369 440.416 781.965 448.523C777.561 456.63 765.049 475.663 764.91 477.895C764.616 482.626 741.525 496.523 750.787 499.027C761.103 501.817 769.684 501.459 777.915 496.277C781.496 494.022 810.253 472.833 826.071 449.349C841.889 425.865 841.398 423.286 843.206 406.98C846.29 379.156 845.408 340.476 841.967 329.678C839.871 323.104 831.518 310.72 829.473 308.463C827.896 306.419 821.884 301.004 820.937 297.924Z" fill="#2a701e" fill-rule="nonzero" opacity="1" stroke="none"/>
<path d="M148.36 653.175C130.66 657.693 119.549 660.347 115.862 665.28C106.638 677.62 117.101 702.427 129.865 702.005C133.897 701.871 137.785 700.459 141.728 699.602C147.164 698.42 197.36 684.21 201.893 683.495C210.235 682.177 247.888 676.086 251.532 675.78C258.82 675.169 312.279 673.321 331.698 673.546C351.912 673.78 375.963 683.984 396.242 681.132C397.852 680.906 408.537 665.062 414.603 662.65C418.899 660.942 424.215 662.838 428.342 660.755C422.461 659.873 413.409 658.363 407.971 656.491C405.833 655.755 377.951 646.3 374.916 645.856C364.849 644.384 342.594 643.463 343.068 642.753C298.288 640.962 204.202 643.802 200.472 644.648C183.009 648.605 166.372 651.409 148.36 653.175Z" fill="#b8dfde" fill-rule="nonzero" opacity="1" stroke="none"/>
<path d="M501.34 167.808C511.72 165.341 517.362 164.387 527.839 161.271C538.316 158.155 544.366 152.215 545.799 151.582C549.085 150.128 578.054 135.529 575.656 124.119C573.651 114.584 562.182 109.909 554.373 104.081C550.828 101.435 535.608 95.7936 534.46 95.581C521.787 93.2351 508.968 91.2802 496.087 90.8436C480.923 90.3295 465.7 91.182 450.608 92.7385C440.26 93.8056 426.143 108.591 425.499 118.321C425.065 124.884 424.553 131.469 424.801 138.042C424.872 139.918 425.148 142.073 426.447 143.429C437.665 155.144 446.971 167.912 464.186 174.146C469.101 175.925 495.568 169.818 501.34 167.808Z" fill="#219888" fill-rule="nonzero" opacity="1" stroke="none"/>
<path d="M406.55 737.027C400.931 729.161 390.703 734.737 381.938 732.812C382.496 720.766 394.846 728.693 403.233 726.131C386.847 718.524 365.844 722.402 348.753 721.868C337.7 721.522 300.155 721.596 295.22 723.289C289.453 725.268 266.407 726.864 253.072 729.664C248.64 730.595 230.005 736.269 224.937 737.83C206.349 743.556 168.952 755.645 167.31 762.136C165.244 770.302 178.826 780.348 184.636 782.971C188.586 784.755 214.5 789.368 223.122 788.053C225.109 787.75 248.197 768.18 258.751 762.213C265.403 758.451 272.282 754.984 279.482 752.422C296.206 746.473 317.761 739.419 335.488 738.922C351.905 738.462 368.335 738.801 384.757 738.922C392.049 738.976 399.714 739.564 406.55 737.027Z" fill="#a4dca7" fill-rule="nonzero" opacity="1" stroke="none"/>
<path d="M115.198 392.143C116.146 388.827 116.146 388.827 117.093 385.511C118.041 388.353 120.177 367.244 124.003 360.699C125.297 358.485 132.674 345.476 134.714 339.945C135.28 338.409 142.898 322.503 146.804 316.25C147.726 314.775 153.513 305.705 155.332 301.328C158.45 293.826 165.7 288.617 169.205 281.288C170.091 279.436 175.046 272.227 177.259 269.918C183.862 263.027 189.293 255.101 195.261 247.652C201.113 240.347 205.406 231.861 211.41 224.679C212.403 223.49 219.458 216.542 222.042 213.867C244.591 190.518 266.334 172.972 292.556 153.361C299.634 148.068 306.729 142.625 314.644 138.691C317.011 137.515 351.536 119.362 355.859 117.373C360.042 115.449 361.821 111.935 366.064 110.148C362.606 108.494 361.123 105.843 357.328 105.305C352.027 104.553 339.366 110.396 334.465 112.738C322.056 118.668 309.657 124.744 298.004 132.048C280.986 142.714 264.598 154.396 248.609 166.551C246.958 167.807 199.023 213.2 178.692 239.721C154.018 271.907 140.633 299.696 124.199 335.294C119.492 345.49 114.374 355.647 111.526 366.51C110.676 369.754 114.855 372.552 115.156 375.892C115.643 381.287 112.975 387.203 115.198 392.143Z" fill="#b8dfde" fill-rule="nonzero" opacity="1" stroke="none"/>
<path d="M551.515 726.605C562.694 730.785 585.241 728.368 595.476 729.132C639.102 732.388 682.922 733.423 726.666 732.837C746.223 732.575 765.745 730.801 785.208 728.865C795.119 727.879 804.549 723.449 814.497 722.948C829.619 722.187 854.567 728.592 859.92 722.815C859.92 722.815 861.702 710.885 858.64 710.621C844.748 709.425 830.636 708.691 816.81 710.498C808.211 711.622 799.899 715.107 791.228 715.235C760.847 715.683 833.393 658.987 823.359 649.924C821.14 647.92 763.845 674.613 758.705 674.338C753.949 674.084 691.919 682.333 653.868 696.302C630.001 699.854 608.58 708.775 585.195 715.755C573.893 719.128 561.675 720.614 551.515 726.605Z" fill="#2a701e" fill-rule="nonzero" opacity="1" stroke="none"/>
<path d="M570.456 422.121C574.575 434.142 592.08 471.312 612.514 481.766C609.405 472.344 589.433 450.024 583.029 420.731C576.625 391.438 582.122 354.414 596.82 328.319C606.768 310.658 616.681 293.836 645.747 275.611C654.284 270.258 664.755 263.064 675.214 257.943C697.439 247.06 719.336 239.847 720.594 239.567C701.987 234.239 671.681 242.865 655.679 250.294C644.583 255.446 632.776 259.383 622.569 266.128C578.648 295.149 563.342 348.816 566.556 398.188C567.057 405.892 568.045 414.908 570.456 422.121Z" fill="#d5e8dd" fill-rule="nonzero" opacity="1" stroke="none"/>
<path d="M639.631 854.042C628.294 856.816 588.89 866.8 560.516 869.675C532.141 872.55 499.747 875.834 468.61 875.834C474.962 874.919 439.021 880.129 426.447 881.519C439.286 890.347 449.802 885.089 467.662 886.256C480.631 887.103 493.581 890.531 506.524 891.708C521.406 893.061 540.588 890.944 556.726 888.151C557.989 887.932 577.878 885.93 587.023 885.392C594.941 884.925 608.356 881.499 613.464 880.556C616.171 880.057 633.244 874.621 639.761 873.204C644.078 872.265 680.769 864.167 685.11 862.569C687.429 861.715 719.302 852.264 730.115 844.093C740.928 835.922 728.877 838.369 723.282 838.954C711.267 840.209 685.836 849.317 683.767 849.626C665.826 852.304 650.967 851.267 639.631 854.042Z" fill="#43a523" fill-rule="nonzero" opacity="1" stroke="none"/>
<path d="M445.396 515.79C427.289 521.947 395.624 534.517 406.796 558.444C409.535 564.31 423.98 566.585 429.473 566.519C443.803 566.348 481.133 569.261 491.275 555.476C493.368 552.631 492.064 546.94 491.819 544C490.404 527.021 483.639 516.444 465.088 513.785C461.901 513.328 451.965 513.556 445.396 515.79Z" fill="#158177" fill-rule="nonzero" opacity="1" stroke="none"/>
<path d="M740.538 678.757C740.538 678.757 774.658 718.152 790.486 697.054C802.242 681.383 811.888 677.521 816.544 676.904C819.241 676.546 851.241 667.648 857.078 667.387C860.242 667.246 890.307 663.541 904.926 656.965C906.168 655.047 912.067 649.821 905.873 646.069C900.808 643 895.84 638.701 889.938 638.209C876.817 637.116 863.598 636.952 850.446 637.542C846.516 637.718 832.082 643.28 828.361 644.312C827.197 644.634 804.287 654.901 793.233 659.253C783.345 663.145 771.686 670.225 761.664 673.087C753.824 675.327 740.538 678.757 740.538 678.757Z" fill="#2a701e" fill-rule="nonzero" opacity="1" stroke="none"/>
<path d="M210.894 348.559C217.768 361.232 243.416 360.99 252.583 357.56C262.348 353.907 261.162 334.711 261.245 328.375C261.46 311.869 246.334 306.876 232.049 306.275C227.996 306.105 216.405 303.79 211.756 311.431C209.649 321.006 204.777 337.606 210.894 348.559Z" fill="#e3fafb" fill-rule="nonzero" opacity="1" stroke="none"/>
<path d="M111.882 366.561C100.903 383.838 100.967 398.694 97.1962 418.199C96.6558 420.995 92.5271 440.381 91.4555 446.738C89.891 456.018 87.4953 463.724 87.2476 473.627C86.6553 497.307 86.3559 521.004 86.7739 544.688C86.9811 556.428 89.2383 568.047 90.0782 579.759C90.1588 580.883 90.1309 582.127 90.7422 583.073C91.6276 584.444 92.7965 593.62 93.9527 596.406C96.22 592.556 97.6373 592.171 97.634 585.849C97.6186 556.652 98.2803 527.692 98.5995 498.496C98.7888 481.173 104.536 441.297 104.898 439.695C106.123 434.267 106.705 428.654 108.566 423.41C110.817 417.066 114.369 402.424 114.725 401.144C116.923 393.243 117.78 385.2 118.223 377.01C118.39 373.916 112.587 370.086 111.882 366.561Z" fill="#9ad9d6" fill-rule="nonzero" opacity="1" stroke="none"/>
<path d="M298.536 245.757C293.176 246.55 287.848 249.233 284.807 254.499C275.353 270.867 292.222 284.876 307.579 281.154C317.589 278.728 324.528 260.095 316.423 252.522C311.792 248.194 304.325 244.901 298.536 245.757Z" fill="#e3fafb" fill-rule="nonzero" opacity="1" stroke="none"/>
<path d="M380.494 728.026C383.059 739.981 386.668 737.069 396.621 738.71C398.443 739.01 405.443 738.115 407.255 738.468C413.86 739.753 420.669 739.642 427.394 739.87C434.496 740.11 451.242 742.701 452.976 743.186C458.459 744.721 470.015 746.836 475.242 743.186C471.264 740.819 465.146 738.043 462.925 737.501C448.979 734.328 425.205 726.346 403.435 726.265C392.878 726.226 388.279 723.153 380.494 728.026Z" fill="#b8dfde" fill-rule="nonzero" opacity="1" stroke="none"/>
<path d="M396.791 97.6371C400.808 95.5094 429.259 90.9981 431.06 81.2926C426.528 82.2554 423.4 82.6535 419.182 83.5338C409.786 85.4944 401.811 88.0767 392.478 91.0463C384.666 93.5318 375.665 98.8566 367.37 100.995C361.776 102.437 358.862 103.318 352.3 105.865C354.525 108.007 357.085 107.324 360.001 108.343C361.824 108.98 363.745 110.073 365.655 110.354C367.953 110.692 389.979 100.781 391.08 100.39C393.076 99.6807 392.037 99.6194 396.791 97.6371Z" fill="#9ad9d6" fill-rule="nonzero" opacity="1" stroke="none"/>
<path d="M473.821 291.236C459.953 294.399 470.673 318.393 485.351 313.413C503.634 307.211 484.794 288.734 473.821 291.236Z" fill="#d5e8dd" fill-rule="nonzero" opacity="1" stroke="none"/>
<path d="M745.749 778.717C747.418 781.092 748.419 784.119 750.756 785.842C755.142 789.076 785.274 779.751 789.807 777.295C778.116 771.693 763.924 775.49 750.96 775.4C749.358 775.389 746.27 778.311 745.749 778.717Z" fill="#428c25" fill-rule="nonzero" opacity="1" stroke="none"/>
</g>
</g>
</svg>
